<?xml version="1.0" encoding="iso-8859-1"?>
<!-- Uploaded to: SVG Repo, www.svgrepo.com, Generator: SVG Repo Mixer Tools -->
<svg height="800px" width="800px" version="1.1" id="Capa_1" xmlns="http://www.w3.org/2000/svg" xmlns:xlink="http://www.w3.org/1999/xlink" 
	 viewBox="0 0 482.02 482.02" xml:space="preserve">
<g>
	<g>
		<path d="M462.02,265.392c11.02,0,20,8.98,20,20c0,11.03-8.98,20-20,20c-8.38,0-15.56-5.17-18.53-12.49h-63.93v14.75h33.96
			c1.99,0,3.9,0.79,5.3,2.19l21.25,21.26c2.31-0.93,4.81-1.46,7.45-1.46c11.02,0,20,8.98,20,20c0,11.03-8.98,20-20,20
			c-11.03,0-20-8.97-20-20c0-2.9,0.63-5.65,1.75-8.14l-18.86-18.85h-30.85v89.97c0,14.64-7.95,28.16-20.73,35.28
			c-6.15,3.43-12.9,5.14-19.65,5.14s-13.5-1.71-19.66-5.14c-12.78-7.12-20.72-20.64-20.72-35.28v-30.73h-16.94v30.73
			c0,14.64-7.95,28.16-20.73,35.28c-6.15,3.43-12.9,5.14-19.65,5.14s-13.5-1.71-19.66-5.14c-12.78-7.12-20.72-20.64-20.72-35.28
			v-30.73h-17.88v30.73c0,14.64-7.95,28.16-20.73,35.28c-6.15,3.43-12.9,5.14-19.65,5.14s-13.5-1.71-19.66-5.14
			c-12.78-7.12-20.72-20.64-20.72-35.28v-89.97H71.6l-18.85,18.85c1.11,2.49,1.75,5.24,1.75,8.14c0,11.03-8.97,20-20,20
			s-20-8.97-20-20c0-11.02,8.97-20,20-20c2.63,0,5.14,0.53,7.44,1.46l21.25-21.26c1.41-1.4,3.32-2.19,5.3-2.19h33.97v-14.75H38.52
			c-2.97,7.32-10.15,12.49-18.52,12.49c-11.03,0-20-8.97-20-20c0-11.02,8.97-20,20-20c8.37,0,15.55,5.19,18.53,12.51h63.93v-14.75
			H76.5c-1.99,0-3.9-0.79-5.31-2.2l-21.25-21.26c-2.31,0.93-4.81,1.45-7.45,1.45c-11.02,0-20-8.97-20-20c0-11.02,8.98-20,20-20
			c11.03,0,20,8.98,20,20c0,2.91-0.63,5.66-1.75,8.15l18.86,18.86h22.86v-109.31c0-4.14,3.36-7.5,7.5-7.5h65.76
			c4.14,0,7.5,3.36,7.5,7.5v50.05h17.88v-50.05c0-4.14,3.35-7.5,7.5-7.5h65.76c4.14,0,7.5,3.36,7.5,7.5v50.05h16.94v-50.05
			c0-4.14,3.35-7.5,7.5-7.5h65.76c4.14,0,7.5,3.36,7.5,7.5v109.31h22.85l18.86-18.86c-1.12-2.49-1.75-5.24-1.75-8.15
			c0-11.02,8.97-20,20-20s20,8.98,20,20c0,11.03-8.97,20-20,20c-2.63,0-5.14-0.52-7.44-1.45l-21.26,21.26
			c-1.41,1.41-3.31,2.2-5.3,2.2h-25.96v14.75h63.93C446.46,270.582,453.64,265.392,462.02,265.392z M467.02,285.392
			c0-2.75-2.25-5-5-5c-2.76,0-5,2.25-5,5c0,2.76,2.24,5,5,5C464.77,290.392,467.02,288.152,467.02,285.392z M452.52,349.642
			c0-2.75-2.25-5-5-5c-2.76,0-5,2.25-5,5c0,2.76,2.24,5,5,5C450.27,354.642,452.52,352.402,452.52,349.642z M444.52,221.142
			c0-2.75-2.24-5-5-5c-2.76,0-5,2.25-5,5c0,2.76,2.24,5,5,5C442.28,226.142,444.52,223.902,444.52,221.142z M364.56,412.622v-244.36
			H313.8v244.36c0,9.2,4.99,17.7,13.02,22.18c7.74,4.31,16.98,4.3,24.71,0C359.56,430.322,364.56,421.822,364.56,412.622z
			 M364.56,153.262v-6.92H313.8v6.92H364.56z M298.8,366.892v-163h-16.94v163H298.8z M266.86,412.622v-244.36H216.1v244.36
			c0,9.2,4.99,17.7,13.02,22.18c7.74,4.31,16.97,4.31,24.71,0C261.86,430.322,266.86,421.822,266.86,412.622z M266.86,153.262v-6.92
			H216.1v6.92H266.86z M201.1,366.892v-163h-17.88v163H201.1z M168.22,412.622v-244.36h-50.76v244.36c0,9.2,4.99,17.7,13.02,22.18
			c7.74,4.31,16.97,4.31,24.71,0C163.23,430.322,168.22,421.822,168.22,412.622z M168.22,153.262v-6.92h-50.76v6.92H168.22z
			 M47.49,221.142c0-2.75-2.24-5-5-5c-2.75,0-5,2.25-5,5c0,2.76,2.25,5,5,5C45.25,226.142,47.49,223.902,47.49,221.142z
			 M39.5,349.642c0-2.75-2.24-5-5-5s-5,2.25-5,5c0,2.76,2.24,5,5,5S39.5,352.402,39.5,349.642z M25,285.392c0-2.75-2.24-5-5-5
			s-5,2.25-5,5c0,2.76,2.24,5,5,5S25,288.152,25,285.392z"/>
		<path style="fill:#F48C6C;" d="M364.56,168.262v244.36c0,9.2-5,17.7-13.03,22.18c-7.73,4.3-16.97,4.31-24.71,0
			c-8.03-4.48-13.02-12.98-13.02-22.18v-244.36H364.56z"/>
		<path d="M345.32,62.202c2.68,3.83,6.36,9.07,6.36,18.56c0,9.5-3.68,14.74-6.36,18.56c-1,1.42-1.86,2.64-2.47,3.95
			c-1.28,2.72-3.98,4.32-6.8,4.32c-1.06,0-2.15-0.23-3.18-0.72c-3.75-1.76-5.36-6.22-3.6-9.97c1.17-2.49,2.55-4.46,3.77-6.19
			c2.27-3.24,3.64-5.19,3.64-9.95c0-4.75-1.37-6.7-3.64-9.94c-2.69-3.82-6.36-9.06-6.36-18.56c0-9.49,3.67-14.73,6.36-18.55
			c0.33-0.47,0.66-0.94,0.98-1.42c2.32-3.44,6.98-4.35,10.41-2.03c3.44,2.31,4.35,6.97,2.03,10.41c-0.38,0.56-0.76,1.11-1.14,1.65
			c-2.27,3.24-3.64,5.19-3.64,9.94C341.68,57.022,343.05,58.972,345.32,62.202z"/>
		<path style="fill:#F48C6C;" d="M266.86,168.262v244.36c0,9.2-5,17.7-13.03,22.18c-7.74,4.31-16.97,4.31-24.71,0
			c-8.03-4.48-13.02-12.98-13.02-22.18v-244.36H266.86z"/>
		<path d="M247.15,62.202c2.68,3.83,6.36,9.07,6.36,18.56c0,9.5-3.68,14.74-6.36,18.56c-1,1.42-1.86,2.64-2.47,3.95
			c-1.28,2.72-3.98,4.32-6.8,4.32c-1.06,0-2.15-0.23-3.18-0.72c-3.75-1.76-5.36-6.22-3.6-9.97c1.17-2.49,2.55-4.46,3.77-6.19
			c2.27-3.24,3.64-5.19,3.64-9.95c0-4.75-1.37-6.7-3.64-9.94c-2.69-3.82-6.36-9.06-6.36-18.56c0-9.49,3.67-14.73,6.36-18.55
			c0.33-0.47,0.66-0.94,0.98-1.42c2.32-3.44,6.98-4.35,10.41-2.03c3.44,2.31,4.35,6.97,2.03,10.41c-0.38,0.56-0.76,1.11-1.14,1.65
			c-2.27,3.24-3.64,5.19-3.64,9.94C243.51,57.022,244.88,58.972,247.15,62.202z"/>
		<path style="fill:#F48C6C;" d="M168.22,168.262v244.36c0,9.2-4.99,17.7-13.03,22.18c-7.74,4.31-16.97,4.31-24.71,0
			c-8.03-4.48-13.02-12.98-13.02-22.18v-244.36H168.22z"/>
		<path d="M148.98,62.202c2.68,3.83,6.36,9.07,6.36,18.56c0,9.5-3.68,14.74-6.36,18.56c-1,1.42-1.86,2.64-2.47,3.95
			c-1.28,2.72-3.98,4.32-6.8,4.32c-1.06,0-2.15-0.23-3.18-0.72c-3.75-1.76-5.36-6.22-3.6-9.97c1.17-2.49,2.55-4.46,3.77-6.2
			c2.27-3.23,3.64-5.18,3.64-9.94c0-4.75-1.37-6.7-3.64-9.94c-2.69-3.82-6.36-9.06-6.36-18.56c0-9.49,3.67-14.73,6.36-18.55
			c0.33-0.47,0.66-0.94,0.98-1.42c2.32-3.44,6.98-4.35,10.41-2.03c3.44,2.31,4.35,6.97,2.03,10.41c-0.38,0.56-0.76,1.11-1.14,1.65
			c-2.27,3.24-3.64,5.19-3.64,9.94C145.34,57.022,146.71,58.972,148.98,62.202z"/>
		<path style="fill:#3DD0F2;" d="M42.49,216.142c2.76,0,5,2.25,5,5c0,2.76-2.24,5-5,5c-2.75,0-5-2.24-5-5
			C37.49,218.392,39.74,216.142,42.49,216.142z"/>
		<path style="fill:#3DD0F2;" d="M34.5,344.642c2.76,0,5,2.25,5,5c0,2.76-2.24,5-5,5s-5-2.24-5-5
			C29.5,346.892,31.74,344.642,34.5,344.642z"/>
		<path style="fill:#3DD0F2;" d="M20,280.392c2.76,0,5,2.25,5,5c0,2.76-2.24,5-5,5s-5-2.24-5-5C15,282.642,17.24,280.392,20,280.392
			z"/>
	</g>
	<path style="fill:#3DD0F2;" d="M462.02,280.392c2.75,0,5,2.25,5,5c0,2.76-2.25,5-5,5c-2.76,0-5-2.24-5-5
		C457.02,282.642,459.26,280.392,462.02,280.392z"/>
	<path style="fill:#3DD0F2;" d="M447.52,344.642c2.75,0,5,2.25,5,5c0,2.76-2.25,5-5,5c-2.76,0-5-2.24-5-5
		C442.52,346.892,444.76,344.642,447.52,344.642z"/>
	<path style="fill:#3DD0F2;" d="M439.52,216.142c2.76,0,5,2.25,5,5c0,2.76-2.24,5-5,5c-2.76,0-5-2.24-5-5
		C434.52,218.392,436.76,216.142,439.52,216.142z"/>
</g>
</svg>