<?xml version='1.0' encoding='iso-8859-1'?>
<!DOCTYPE svg PUBLIC '-//W3C//DTD SVG 1.1//EN' 'http://www.w3.org/Graphics/SVG/1.1/DTD/svg11.dtd'>
<!-- Uploaded to: SVG Repo, www.svgrepo.com, Generator: SVG Repo Mixer Tools -->
<svg fill="#000000" height="800px" width="800px" version="1.1" xmlns="http://www.w3.org/2000/svg" viewBox="0 0 448.518 448.518" xmlns:xlink="http://www.w3.org/1999/xlink" enable-background="new 0 0 448.518 448.518">
  <g>
    <path d="m388.953,100.169h-115.757c-1.291-8.209-4.703-15.882-9.973-22.369l41.035-41.034c2.926,1.717 6.32,2.72 9.952,2.72 10.886,0 19.743-8.857 19.743-19.743-5.68434e-14-10.886-8.857-19.743-19.744-19.743s-19.743,8.857-19.743,19.743c0,3.631 1.003,7.026 2.72,9.952l-41.036,41.036c-17.353-14.054-42.381-14.053-59.729,0l-41.036-41.036c1.717-2.926 2.72-6.32 2.72-9.952 0-10.886-8.856-19.743-19.743-19.743s-19.743,8.857-19.743,19.743c0,10.886 8.857,19.743 19.743,19.743 3.631,0 7.025-1.003 9.952-2.72l41.035,41.035c-5.271,6.488-8.683,14.161-9.974,22.369h-119.81c-32.312,0-58.6,26.288-58.6,58.6v218.002c0,32.312 26.288,58.6 58.6,58.6h18.917v5.646c0,4.142 3.358,7.5 7.5,7.5s7.5-3.358 7.5-7.5v-5.646h261.555v5.646c0,4.142 3.358,7.5 7.5,7.5s7.5-3.358 7.5-7.5v-5.646h18.917c32.312,0 58.6-26.288 58.6-58.6v-218.003c-0.001-32.312-26.289-58.6-58.601-58.6zm-74.744-90.169c5.373,0 9.743,4.371 9.743,9.743s-4.371,9.743-9.743,9.743-9.743-4.371-9.743-9.743 4.371-9.743 9.743-9.743zm-175.847,19.486c-5.373,0-9.743-4.371-9.743-9.743s4.371-9.743 9.743-9.743c5.372,0 9.743,4.371 9.743,9.743s-4.371,9.743-9.743,9.743zm64.947,55.197c12.67-12.669 33.284-12.669 45.957,0.003 4.337,4.331 7.289,9.67 8.653,15.483h-63.267c1.365-5.814 4.318-11.153 8.657-15.486zm229.244,292.089c0,24.041-19.559,43.6-43.6,43.6h-329.388c-24.041,0-43.6-19.559-43.6-43.6v-218.003c0-24.041 19.559-43.6 43.6-43.6h329.388c24.041,0 43.6,19.559 43.6,43.6v218.003z"/>
    <path d="m388.595,124.49h-328.672c-19.099,0-34.638,15.538-34.638,34.638v217.287c0,19.099 15.539,34.638 34.638,34.638h328.672c19.099,0 34.638-15.538 34.638-34.638v-217.288c0-19.099-15.539-34.637-34.638-34.637zm24.638,251.924c0,13.585-11.052,24.638-24.638,24.638h-328.672c-13.585,0-24.638-11.052-24.638-24.638v-217.287c0-13.585 11.052-24.638 24.638-24.638h328.672c13.585,0 24.638,11.052 24.638,24.638v217.287z"/>
    <path d="m299.113,152.132c-74.937-11.092-150.93-11.092-225.866,0-9.91,1.467-17.849,9.105-19.756,19.007-12.35,64.12-12.35,129.144 0,193.264 1.907,9.902 9.846,17.54 19.756,19.007 37.468,5.546 75.2,8.319 112.933,8.319s75.465-2.773 112.934-8.319c9.91-1.466 17.849-9.105 19.756-19.007 12.35-64.12 12.35-129.144 0-193.264-1.908-9.902-9.847-17.541-19.757-19.007zm9.937,210.379c-1.105,5.737-5.687,10.16-11.4,11.006-73.967,10.948-148.974,10.948-222.938,0-5.714-0.846-10.295-5.269-11.4-11.006-12.108-62.865-12.108-126.616 0-189.481 1.105-5.737 5.687-10.16 11.4-11.006 36.983-5.474 74.226-8.211 111.469-8.211s74.486,2.737 111.469,8.211c5.714,0.846 10.295,5.269 11.4,11.006 12.108,62.865 12.108,126.616 0,189.481z"/>
    <path d="m299.625,209.503c-2.745,0.305-4.723,2.777-4.417,5.521 3.186,28.696 3.765,57.822 1.722,86.569-0.196,2.755 1.878,5.146 4.633,5.342 0.121,0.009 0.241,0.013 0.36,0.013 2.6,0 4.795-2.012 4.982-4.646 2.086-29.35 1.494-59.086-1.758-88.382-0.306-2.744-2.775-4.718-5.522-4.417z"/>
    <path d="m298.79,202.998c2.732-0.398 4.625-2.936 4.228-5.668-1.042-7.163-2.261-14.413-3.622-21.547-0.518-2.712-3.135-4.492-5.849-3.974-2.712,0.518-4.492,3.136-3.975,5.848 1.334,6.991 2.528,14.094 3.55,21.113 0.362,2.489 2.499,4.281 4.941,4.281 0.24-2.84217e-14 0.483-0.018 0.727-0.053z"/>
    <path d="m396.413,342.865h-55.223c-2.761,0-5,2.239-5,5s2.239,5 5,5h55.223c2.761,0 5-2.239 5-5s-2.239-5-5-5z"/>
    <path d="m396.413,361.048h-55.223c-2.761,0-5,2.239-5,5s2.239,5 5,5h55.223c2.761,0 5-2.239 5-5s-2.239-5-5-5z"/>
    <path d="m396.413,379.231h-55.223c-2.761,0-5,2.239-5,5s2.239,5 5,5h55.223c2.761,0 5-2.239 5-5s-2.239-5-5-5z"/>
    <path d="m350.573,283.849c-10.051,10.051-10.051,26.405 0,36.457 5.026,5.025 11.627,7.538 18.229,7.538 6.602,0 13.203-2.513 18.229-7.538 4.869-4.869 7.55-11.343 7.55-18.228 0-6.886-2.681-13.36-7.55-18.229-10.053-10.051-26.406-10.052-36.458,0zm7.071,7.071c3.076-3.076 7.117-4.614 11.157-4.614 2.416,0 4.828,0.562 7.038,1.662l-21.147,21.147c-2.939-5.906-1.963-13.28 2.952-18.195zm22.314,22.314c-4.915,4.915-12.289,5.891-18.195,2.952l21.15-21.15c1.081,2.161 1.666,4.554 1.666,7.041 0.001,4.215-1.64,8.177-4.621,11.157z"/>
    <path d="m350.573,257.376c5.026,5.026 11.626,7.538 18.229,7.538 6.601,0 13.204-2.513 18.229-7.538 4.869-4.869 7.55-11.343 7.55-18.228s-2.681-13.359-7.55-18.229c-10.052-10.051-26.405-10.051-36.457,0-10.052,10.052-10.052,26.406-0.001,36.457zm7.071-7.071c-4.915-4.915-5.891-12.289-2.952-18.195l21.147,21.147c-5.905,2.94-13.279,1.964-18.195-2.952zm22.314-22.314c2.98,2.98 4.622,6.943 4.622,11.157 0,2.487-0.585,4.88-1.666,7.041l-21.151-21.15c2.21-1.1 4.622-1.662 7.038-1.662 4.041,0 8.081,1.538 11.157,4.614z"/>
    <path d="m345.322,182.518c1.31,0 2.6-0.53 3.53-1.46 0.93-0.93 1.47-2.22 1.47-3.54 0-1.32-0.54-2.6-1.47-3.54-0.93-0.93-2.22-1.46-3.53-1.46-1.32,0-2.61,0.53-3.54,1.46-0.93,0.93-1.46,2.22-1.46,3.54 0,1.32 0.53,2.61 1.46,3.53 0.93,0.94 2.22,1.47 3.54,1.47z"/>
    <path d="m360.972,182.518c1.32,0 2.61-0.53 3.54-1.46 0.93-0.94 1.46-2.22 1.46-3.54 0-1.32-0.53-2.61-1.46-3.54-0.93-0.93-2.22-1.46-3.54-1.46-1.32,0-2.6,0.53-3.53,1.46-0.94,0.93-1.47,2.22-1.47,3.54 0,1.32 0.53,2.6 1.47,3.54 0.93,0.93 2.22,1.46 3.53,1.46z"/>
    <path d="m376.632,182.518c1.31,0 2.6-0.53 3.53-1.46 0.93-0.94 1.47-2.22 1.47-3.54 0-1.32-0.54-2.6-1.47-3.54-0.93-0.93-2.22-1.46-3.53-1.46-1.32,0-2.61,0.53-3.54,1.46-0.93,0.93-1.46,2.22-1.46,3.54 0,1.32 0.53,2.61 1.46,3.54 0.93,0.93 2.22,1.46 3.54,1.46z"/>
    <path d="m392.282,182.518c1.32,0 2.61-0.53 3.54-1.46 0.93-0.94 1.46-2.22 1.46-3.54 0-1.32-0.53-2.61-1.46-3.54-0.93-0.93-2.22-1.46-3.54-1.46-1.32,0-2.6,0.53-3.53,1.46-0.93,0.93-1.47,2.22-1.47,3.54 0,1.32 0.54,2.61 1.47,3.54 0.93,0.93 2.21,1.46 3.53,1.46z"/>
    <path d="m345.322,168.018c1.31,0 2.6-0.53 3.53-1.46 0.93-0.94 1.47-2.22 1.47-3.54 0-1.32-0.54-2.61-1.47-3.53-0.93-0.94-2.22-1.47-3.53-1.47-1.32,0-2.61,0.53-3.54,1.46-0.93,0.93-1.46,2.22-1.46,3.54 0,1.32 0.53,2.61 1.46,3.54 0.93,0.93 2.22,1.46 3.54,1.46z"/>
    <path d="m360.972,168.018c1.32,0 2.61-0.53 3.54-1.46 0.93-0.94 1.46-2.22 1.46-3.54 0-1.32-0.53-2.61-1.46-3.54-0.94-0.93-2.22-1.46-3.54-1.46-1.31,0-2.6,0.53-3.53,1.46-0.94,0.93-1.47,2.22-1.47,3.54 0,1.32 0.53,2.6 1.47,3.54 0.93,0.93 2.22,1.46 3.53,1.46z"/>
    <path d="m376.632,168.018c1.31,0 2.6-0.53 3.53-1.47 0.93-0.93 1.47-2.21 1.47-3.53 0-1.32-0.54-2.6-1.47-3.54-0.93-0.93-2.22-1.46-3.53-1.46-1.32,0-2.61,0.53-3.54,1.46-0.93,0.93-1.46,2.22-1.46,3.54 0,1.32 0.53,2.61 1.46,3.53 0.93,0.94 2.22,1.47 3.54,1.47z"/>
    <path d="m392.282,168.018c1.32,0 2.61-0.53 3.54-1.47 0.93-0.93 1.46-2.21 1.46-3.53 0-1.32-0.53-2.6-1.46-3.54-0.93-0.93-2.22-1.46-3.54-1.46-1.31,0-2.6,0.53-3.53,1.46-0.93,0.93-1.47,2.22-1.47,3.54 0,1.32 0.54,2.6 1.47,3.53 0.93,0.94 2.22,1.47 3.53,1.47z"/>
    <path d="m345.322,197.018c1.31,0 2.6-0.53 3.53-1.46 0.93-0.94 1.47-2.23 1.47-3.54 0-1.32-0.54-2.6-1.47-3.54-0.93-0.93-2.22-1.46-3.53-1.46-1.32,0-2.61,0.53-3.54,1.46-0.93,0.93-1.46,2.22-1.46,3.54 0,1.32 0.53,2.6 1.46,3.54 0.93,0.93 2.22,1.46 3.54,1.46z"/>
    <path d="m360.972,197.018c1.32,0 2.61-0.53 3.54-1.46 0.93-0.94 1.46-2.22 1.46-3.54 0-1.32-0.53-2.6-1.46-3.54-0.93-0.93-2.22-1.46-3.54-1.46-1.31,0-2.6,0.53-3.53,1.46-0.94,0.94-1.47,2.22-1.47,3.54 0,1.32 0.53,2.6 1.47,3.54 0.93,0.93 2.22,1.46 3.53,1.46z"/>
    <path d="m376.632,197.018c1.31,0 2.6-0.53 3.53-1.46 0.93-0.94 1.47-2.22 1.47-3.54 0-1.32-0.54-2.6-1.47-3.54-0.93-0.93-2.22-1.46-3.53-1.46-1.32,0-2.61,0.53-3.54,1.46-0.93,0.93-1.46,2.22-1.46,3.54 0,1.32 0.53,2.61 1.46,3.54 0.93,0.93 2.22,1.46 3.54,1.46z"/>
    <path d="m392.282,197.018c1.32,0 2.61-0.53 3.54-1.46 0.93-0.94 1.46-2.22 1.46-3.54 0-1.32-0.53-2.6-1.46-3.53-0.93-0.94-2.22-1.47-3.54-1.47-1.31,0-2.6,0.53-3.53,1.47-0.93,0.93-1.47,2.21-1.47,3.53 0,1.32 0.54,2.6 1.47,3.54 0.93,0.93 2.22,1.46 3.53,1.46z"/>
  </g>
</svg>